<svg id="Calque_1" data-name="Calque 1" xmlns="http://www.w3.org/2000/svg" viewBox="0 0 352.89 264.31"><defs><style>.cls-1{fill:#1d1d1b;}.cls-2{fill:#1d71b8;}.cls-3{fill:#fff;}</style></defs><path class="cls-1" d="M196.21,471.14H161.65v13.52h38.12l-1.85,9.44H146.48V440.88h51.25v9.43H161.65v11.4h34.56Z" transform="translate(-55.77 -297.03)"/><path class="cls-1" d="M227.12,481.8l-5.64,12.3H206.11l24.55-53.22h19.62l25.61,53.22H259.46l-5.94-12.3Zm23-9.43C245,461.14,241.75,454,240,449.18h-.11c-1.78,5.25-5.39,13.6-9.5,23.19Z" transform="translate(-55.77 -297.03)"/><path class="cls-1" d="M296.9,478.5c1.65,5.34,6.86,7.68,15.22,7.68S324,483.76,324,479.86c0-4.33-3.48-6.21-15.84-8.33-19.67-3.4-24.53-8.67-24.53-15.85,0-9.28,9.42-15.58,26.53-15.58,19.19,0,26.83,7.6,27.87,15.38H322.31c-.75-3.27-3.21-6.83-12.53-6.83-6.34,0-10.17,1.93-10.17,5.71s3.07,5.2,14.75,7.2c21,3.64,25.63,9.4,25.63,16.9,0,9.72-10,16.39-29.09,16.39-18.35,0-28-6.65-29.74-16.35Z" transform="translate(-55.77 -297.03)"/><path class="cls-1" d="M367.19,494.1V475.29a2.4,2.4,0,0,0-.6-1.71l-24.92-32.7h17.68c5.59,8,12.84,18.7,16.44,24.49,3.15-5.58,11.06-16.79,16.52-24.49h16.35l-25.24,32.53a2.1,2.1,0,0,0-.59,1.7v19Z" transform="translate(-55.77 -297.03)"/><path class="cls-2" d="M217.16,514.79l-5.94,3.35a32.41,32.41,0,0,0-11.8-7.14,45.17,45.17,0,0,0-15.13-2.43,43,43,0,0,0-16.68,3.19,28.65,28.65,0,0,0-11.9,8.55,19,19,0,0,0-4.23,12.08q0,10.14,9.45,16.93t23.83,6.78q15.81,0,26.46-9.12l5.94,3.32a38.71,38.71,0,0,1-14,8.16,58,58,0,0,1-18.82,2.88q-19.75,0-31.17-9.69-9.57-8.17-9.57-19.75,0-12.17,11.59-20.48t29.05-8.31a55.63,55.63,0,0,1,19,3.07A36.56,36.56,0,0,1,217.16,514.79Z" transform="translate(-55.77 -297.03)"/><path class="cls-1" d="M268.11,503.11q17.11,0,28.63,8.4t11.53,20.69q0,12.18-11.5,20.66t-28,8.48q-16.76,0-28.28-8.44t-11.52-20.43a23.76,23.76,0,0,1,5.25-14.81A34.78,34.78,0,0,1,248.49,507,49.48,49.48,0,0,1,268.11,503.11Zm.33,5.39a39.76,39.76,0,0,0-15.84,3.2,28.74,28.74,0,0,0-11.69,8.64,19.32,19.32,0,0,0-4.2,12.11q0,9.88,9.3,16.69T268.44,556a41.44,41.44,0,0,0,16.23-3.13,28,28,0,0,0,11.64-8.56,19.37,19.37,0,0,0,4.18-12.07,18.89,18.89,0,0,0-4.18-11.94,28.8,28.8,0,0,0-11.77-8.55A40.87,40.87,0,0,0,268.44,508.5Z" transform="translate(-55.77 -297.03)"/><path class="cls-1" d="M319.94,560l10.78-55.45h1.22L362.55,550l30.32-45.5h1.2L404.91,560h-7.38l-7.44-39.66L363.47,560h-1.93L334.6,520l-7.39,40Z" transform="translate(-55.77 -297.03)"/><path class="cls-2" d="M249.29,346.21h-3.85c-.11,0-.22-.07-.32-.08a29.83,29.83,0,0,1-6.37-1.11,28.37,28.37,0,0,1-8.76-4.2,21.78,21.78,0,0,1-3.11-2.62,30.6,30.6,0,0,1-3.21-3.91,23.55,23.55,0,0,1-2.06-3.91,16.17,16.17,0,0,1-1-3.39,18.58,18.58,0,0,1,.18-8.83c.35-1.17.74-2.33,1.15-3.49a17.65,17.65,0,0,1,2.07-3.75,23.26,23.26,0,0,1,3.28-3.81,25.86,25.86,0,0,1,4.11-3.17,28.77,28.77,0,0,1,6.48-3,29.9,29.9,0,0,1,8.24-1.45,30.49,30.49,0,0,1,10.19,1.27,29,29,0,0,1,8.18,3.93,26,26,0,0,1,4.75,4.24,19.14,19.14,0,0,1,2.12,2.89,25.37,25.37,0,0,1,2,4.09,41,41,0,0,1,1.1,4.4c.07.3.09.6.13.9v3.29c-.13.64-.27,1.29-.38,1.94A18.09,18.09,0,0,1,273,330.6a24.77,24.77,0,0,1-2,3.66,20.75,20.75,0,0,1-3.28,4,33.59,33.59,0,0,1-2.8,2.41,27.43,27.43,0,0,1-6.64,3.58,30.6,30.6,0,0,1-6.74,1.72C250.82,346,250.06,346.12,249.29,346.21ZM249,321.34h9.81c-.12-.87-.23-1.71-.37-2.54-.24-1.5-.52-3-.77-4.49-.05-.34-.19-.47-.58-.47-2.54,0-5.08,0-7.62,0l-.47,0Zm0,10.43.13,0c2.72,0,5.43,0,8.15,0a.51.51,0,0,0,.35-.31c.19-.82.37-1.63.52-2.46s.23-1.59.33-2.39.21-1.53.32-2.31H249Zm-13.11-10.43h9.69v-7.47l-.26,0h-7.82a.4.4,0,0,0-.46.38c-.22.95-.51,1.88-.66,2.83C236.19,318.46,236.07,319.88,235.91,321.34Zm9.7,10.48v-7.5H236a1.92,1.92,0,0,0,0,.34c.18,1.44.35,2.88.57,4.31.12.81.33,1.61.48,2.41.06.32.19.46.57.45.86,0,1.73,0,2.6,0Zm-13.09-10.47c.13-1.28.21-2.54.39-3.79s.47-2.44.72-3.67a.83.83,0,0,0-.15,0c-2.39,0-4.78,0-7.17,0a.63.63,0,0,0-.48.28,21.24,21.24,0,0,0-1.13,2.48,27.12,27.12,0,0,0-.74,2.78c-.15.63-.26,1.28-.39,2Zm.06,3h-9c.13.59.28,1.12.36,1.66a18.16,18.16,0,0,0,1.8,5.38.72.72,0,0,0,.77.46h6.74c.14,0,.28,0,.48,0A27.47,27.47,0,0,1,232.58,324.32ZM261,313.85a30.83,30.83,0,0,1,1.1,7.49H271a.47.47,0,0,0,0-.15,13.72,13.72,0,0,0-.95-4.33c-.41-.88-.79-1.77-1.17-2.66a.58.58,0,0,0-.63-.36c-1.66,0-3.33,0-5,0Zm10,10.47h-8.9a31,31,0,0,1-1.08,7.5h7.43a.41.41,0,0,0,.29-.19c.25-.45.51-.89.72-1.36s.34-1,.56-1.5A14.9,14.9,0,0,0,271,324.32Zm-14.67-13.46c-1.09-3.28-4.34-7.26-7.33-7.89v7.89ZM249,334.8v7.94a10.38,10.38,0,0,0,5.31-4.13,13.61,13.61,0,0,0,2-3.81ZM245.61,303l-.38.11a9,9,0,0,0-3.73,2.61,15,15,0,0,0-2.7,4c-.06.14-.19.27-.26.41s-.19.46-.29.72h7.36Zm0,31.85h-7.43a10.27,10.27,0,0,1,.55,1,13.14,13.14,0,0,0,2.45,3.81,18.4,18.4,0,0,0,2.46,2.2,11.32,11.32,0,0,0,2,1Zm21-23.94a23.18,23.18,0,0,0-10.66-7,1.58,1.58,0,0,0,.3.47,17.8,17.8,0,0,1,2.66,4c.4.75.7,1.55,1.07,2.31a.52.52,0,0,0,.37.25C262.41,310.89,264.45,310.88,266.63,310.88Zm-27.87-7.12a23.92,23.92,0,0,0-10.67,7.12c2.2,0,4.25,0,6.3,0,.12,0,.29-.16.35-.28.51-1.06,1-2.12,1.49-3.18a1.84,1.84,0,0,1,.15-.28Zm27.87,31h-6.29a.47.47,0,0,0-.33.24c-.57,1.12-1.08,2.27-1.69,3.37-.51.9-1.12,1.75-1.72,2.61a7.94,7.94,0,0,1-.68.75l.1.11A23.82,23.82,0,0,0,266.63,334.78Zm-38.52,0a20,20,0,0,0,3.21,3.11,24.83,24.83,0,0,0,5.9,3.44c.49.2,1,.37,1.51.55l.15-.2a1.39,1.39,0,0,1-.46-.29c-.79-1.12-1.61-2.21-2.3-3.38-.55-.93-.91-1.95-1.38-2.93a.56.56,0,0,0-.38-.28C232.32,334.78,230.28,334.78,228.11,334.78Z" transform="translate(-55.77 -297.03)"/><path class="cls-3" d="M55.77,311.14a1.13,1.13,0,0,1,1.28.83l2.06,8.64a1.11,1.11,0,0,1-1,1.33" transform="translate(-55.77 -297.03)"/><path class="cls-2" d="M277.27,323.39q0,11.33-10.35,18.7a30.11,30.11,0,0,1-5.57,3.12c-.41.19-.81.36-1.23.52s-.86.32-1.3.48a1.09,1.09,0,0,1-.4.07l-12.67-.06a4.29,4.29,0,0,0-.9.09h-.09c-1.35,0-2.45.63-2.45,1.41v.48a1.11,1.11,0,0,1-1.07,1.1c-1.59.08-3.22.11-4.9.1A70.23,70.23,0,0,1,223,348.2l-.9-1.22c.09-.82.16-1.64.2-2.48a72.67,72.67,0,0,0,0-7.67v0c.18.11.36.22.55.32A25.19,25.19,0,0,0,235,340q9.22,0,15.22-4.56a15.08,15.08,0,0,0,4.5-5.33.8.8,0,0,0,.08-.16,15,15,0,0,0,1.43-6.53,15.88,15.88,0,0,0-5.61-12.21q-5.64-5.1-16.67-5.13-12.75,0-18.28,8.79a2.31,2.31,0,0,1-1.95.82l-9.15,0c-1.15,0-2.09-.61-2.09-1.34l.05-15.27c0-.74.94-1.34,2.1-1.34l8.49,0c1.17,0,2.11.6,2.11,1.34,0,1.07,1.82,1.69,3.23,1.14A51.59,51.59,0,0,1,237.73,297a61.62,61.62,0,0,1,19.85,3.11A32.77,32.77,0,0,1,272,309.28,20.65,20.65,0,0,1,277.27,323.39Z" transform="translate(-55.77 -297.03)"/><path class="cls-2" d="M342.09,341.22l-24.45-9.32a1.28,1.28,0,0,0-.34-.07,5.36,5.36,0,0,0-2.45.39,4.84,4.84,0,0,0-2.23,1.85l-7.27,10.27a1,1,0,0,0,.29,1.52,3.46,3.46,0,0,0,1.73.42l13.44.05c1.34,0,2.41.62,2.41,1.4L323,370.79c0,.78-1.11,1.4-2.43,1.4l-27.24-.07c-1.35,0-2.42-.64-2.41-1.41l.14-18.09c0-.77-1.07-1.4-2.41-1.41l-15.81,0c-1.34,0-2.42.62-2.43,1.38l-.16,18.09c0,.78-1.08,1.4-2.41,1.39L244.5,372c-1.34,0-2.42-.63-2.41-1.4l.18-21.55v-1.52c0-.77,1.09-1.39,2.43-1.39h.1l12.79,0H258a3.14,3.14,0,0,0,2-.6,1.28,1.28,0,0,0,.34-.44.84.84,0,0,0,.08-.34l.11-13.17c0-.77-1.08-1.4-2.41-1.41h-4.41l-29.5-.07c-1.34,0-2.43.62-2.43,1.38l-.06,5.78-.08,10.8-.43,52.2c0,1.1,2.15,1.8,3.74,1.18a17.47,17.47,0,0,1,6.15-1.18,18.93,18.93,0,0,1,7,1.15c1.62.62,3.79,0,3.81-1.14l0-5.19c0-.77,1.09-1.39,2.44-1.38l76.1.2c1.33,0,2.41.63,2.41,1.41,0,1.73,0,3.47,0,5.21,0,1.12,2.12,1.78,3.74,1.17a19.32,19.32,0,0,1,7.53-1.12,17.17,17.17,0,0,1,5.6,1.17c1.6.63,3.77,0,3.78-1.15l-.65-58.37A1.09,1.09,0,0,0,342.09,341.22Z" transform="translate(-55.77 -297.03)"/><ellipse class="cls-2" cx="276.38" cy="117.35" rx="12.49" ry="10.25"/><ellipse class="cls-2" cx="174.97" cy="117.35" rx="12.49" ry="10.25"/><path class="cls-3" d="M249.1,321.45v-7.92l.48,0c2.6,0,5.2,0,7.81,0,.4,0,.54.14.6.5.25,1.59.53,3.17.79,4.76.14.88.25,1.77.38,2.7Z" transform="translate(-55.77 -297.03)"/><path class="cls-3" d="M249,331.6v-7.34h10.13c-.11.77-.22,1.52-.32,2.28s-.21,1.58-.35,2.36-.34,1.62-.54,2.42a.51.51,0,0,1-.36.31c-2.81,0-5.61,0-8.42,0Z" transform="translate(-55.77 -297.03)"/><path class="cls-3" d="M235.87,321.45c.16-1.55.28-3.06.49-4.55.15-1,.45-2,.67-3,.06-.26.15-.41.48-.41,2.64,0,5.29,0,7.93,0l.27,0v7.92Z" transform="translate(-55.77 -297.03)"/><path class="cls-3" d="M245.72,331.65h-5.48c-.89,0-1.77,0-2.65,0-.38,0-.51-.13-.57-.45-.16-.81-.37-1.62-.49-2.44-.22-1.44-.4-2.9-.59-4.35,0-.11,0-.21,0-.34h9.78Z" transform="translate(-55.77 -297.03)"/><path class="cls-3" d="M232.62,321.4h-9.29c.14-.71.25-1.39.41-2.06a29.83,29.83,0,0,1,.76-2.92,23.38,23.38,0,0,1,1.17-2.61.66.66,0,0,1,.5-.3h7.45l.15,0c-.25,1.3-.55,2.58-.74,3.87S232.75,320.05,232.62,321.4Z" transform="translate(-55.77 -297.03)"/><path class="cls-3" d="M232.48,324.08a27.73,27.73,0,0,0,1.15,7.54l-.49,0c-2.28,0-4.56,0-6.85,0a.76.76,0,0,1-.78-.47,18.52,18.52,0,0,1-1.83-5.43c-.07-.55-.23-1.09-.36-1.68Z" transform="translate(-55.77 -297.03)"/><path class="cls-3" d="M261.4,313.5h2.23c1.7,0,3.39,0,5.09,0a.57.57,0,0,1,.63.37c.38.9.78,1.8,1.19,2.69a13.39,13.39,0,0,1,1,4.36.53.53,0,0,1,0,.16h-9A31,31,0,0,0,261.4,313.5Z" transform="translate(-55.77 -297.03)"/><path class="cls-3" d="M271.54,324.08a14.86,14.86,0,0,1-1,4.48c-.23.49-.35,1-.57,1.52a15,15,0,0,1-.73,1.37.41.41,0,0,1-.29.19h-7.55a31,31,0,0,0,1.1-7.57Z" transform="translate(-55.77 -297.03)"/><path class="cls-3" d="M256.64,311.06h-7.59v-8.55C252.15,303.19,255.51,307.51,256.64,311.06Z" transform="translate(-55.77 -297.03)"/><path class="cls-3" d="M249.19,334.66h7.47a13.78,13.78,0,0,1-2.08,3.85,10.5,10.5,0,0,1-5.39,4.17Z" transform="translate(-55.77 -297.03)"/><path class="cls-3" d="M245.72,302.51v8.38h-7.47c.1-.27.18-.52.29-.76s.2-.28.26-.44a16.23,16.23,0,0,1,2.74-4.29,9.23,9.23,0,0,1,3.8-2.77Z" transform="translate(-55.77 -297.03)"/><path class="cls-3" d="M245.73,334.68v8a11,11,0,0,1-2-1,18.28,18.28,0,0,1-2.5-2.22,13.41,13.41,0,0,1-2.49-3.84c-.14-.32-.34-.61-.55-1Z" transform="translate(-55.77 -297.03)"/><path class="cls-3" d="M267.08,310.5c-2.22,0-4.29,0-6.36,0a.49.49,0,0,1-.37-.25c-.38-.77-.69-1.58-1.09-2.34a18,18,0,0,0-2.71-4,1.31,1.31,0,0,1-.3-.48A23.62,23.62,0,0,1,267.08,310.5Z" transform="translate(-55.77 -297.03)"/><path class="cls-3" d="M239.1,303.31c-.87,1.29-1.68,2.47-2.49,3.66a1.53,1.53,0,0,0-.16.31c-.52,1.16-1,2.32-1.57,3.47-.06.13-.23.3-.36.3-2.15,0-4.29,0-6.6,0A25.05,25.05,0,0,1,239.1,303.31Z" transform="translate(-55.77 -297.03)"/><path class="cls-3" d="M267.08,334.65a24.3,24.3,0,0,1-10.79,7.15l-.1-.1a7.16,7.16,0,0,0,.7-.77c.6-.86,1.23-1.72,1.74-2.63.63-1.11,1.14-2.28,1.72-3.41a.46.46,0,0,1,.34-.23C262.77,334.64,264.86,334.65,267.08,334.65Z" transform="translate(-55.77 -297.03)"/><path class="cls-3" d="M227.94,334.65c2.21,0,4.28,0,6.35,0a.59.59,0,0,1,.39.29c.47,1,.84,2,1.4,3,.7,1.17,1.54,2.28,2.33,3.41a1.81,1.81,0,0,0,.47.3l-.15.19c-.51-.18-1-.35-1.53-.56a25.2,25.2,0,0,1-6-3.46A21.39,21.39,0,0,1,227.94,334.65Z" transform="translate(-55.77 -297.03)"/></svg>